<svg id="Layer_1" data-name="Layer 1" xmlns="http://www.w3.org/2000/svg" viewBox="0 0 200 200">
  <defs>
    <style>
      .cls-1 {
        fill: #fff;
      }

      .cls-2 {
        fill: #6dbedf;
      }

      .cls-3 {
        fill: none;
        stroke: #fff;
        stroke-linecap: round;
        stroke-linejoin: round;
        stroke-width: 2px;
      }
    </style>
  </defs>
  <title>Artboard 1</title>
  <g id="Body">
    <g id="Arm_-_right" data-name="Arm - right">
      <path id="Hand" class="cls-1" d="M137.75,106a6.63,6.63,0,0,1-1.26-.11,5.92,5.92,0,0,1-4.69-8.12,8.14,8.14,0,0,1,3.6-4.17,1.5,1.5,0,0,1,1.5,2.6,5,5,0,0,0-2.28,2.61,3.09,3.09,0,0,0,.13,2.67,3.12,3.12,0,0,0,2.25,1.46,5.1,5.1,0,0,0,3.4-.68,1.5,1.5,0,0,1,1.5,2.6A8.32,8.32,0,0,1,137.75,106Z"/>
      <path id="Arm" class="cls-1" d="M133.36,100.4c-7.35,3.79-15.11,3.23-21.57,1.37a19.67,19.67,0,0,1,2.26,3.67,35.74,35.74,0,0,0,7.3.79,29,29,0,0,0,13.39-3.16Z"/>
    </g>
    <g id="Body-2" data-name="Body">
      <g id="Rocket">
        <path id="Fire" class="cls-1" d="M91,139.9c-2,2-3,6-3,6l4-2,4,10,4-10,4,2s-1-4-3-6a7.26,7.26,0,0,0-10,0Z"/>
        <path id="Rocket-2" data-name="Rocket" class="cls-1" d="M87.18,134A3,3,0,0,0,90,136h12a3,3,0,0,0,2.82-2Z"/>
      </g>
      <path id="Body-3" data-name="Body" class="cls-1" d="M96,96h0a18,18,0,0,1,18,18v14a4,4,0,0,1-4,4H82a4,4,0,0,1-4-4V114A18,18,0,0,1,96,96Z"/>
      <rect id="Neck" class="cls-1" x="93" y="94" width="6" height="10"/>
      <path id="M" class="cls-2" d="M91.59,120l1-6.91L95.38,120h1.24l2.89-6.91.88,6.91h3.11l-1.8-12H98.6L96,114.41,93.6,108H90.53l-2,12Z"/>
    </g>
    <g id="Arm_-_left" data-name="Arm - left">
      <path id="Hand-2" data-name="Hand" class="cls-1" d="M66.66,127.28a1.39,1.39,0,0,1-.44-.07,1.49,1.49,0,0,1-1-1.87c.72-2.37-.19-4.76-2-5.33s-3.93.91-4.66,3.28a1.5,1.5,0,1,1-2.87-.87c1.21-4,5-6.33,8.41-5.28s5.23,5.12,4,9.08A1.5,1.5,0,0,1,66.66,127.28Z"/>
      <path id="Arm-2" data-name="Arm" class="cls-1" d="M81.86,99.87l-.39.16c-9.71,4.07-16.4,10.58-19.35,18.82l2.83,1c2.53-7.08,7.77-11.75,13.2-14.83A20.23,20.23,0,0,1,81.86,99.87Z"/>
    </g>
  </g>
  <g id="Head">
    <rect id="Head-2" data-name="Head" class="cls-1" x="71" y="60" width="52" height="32" rx="4"/>
    <g id="Eye">
      <path class="cls-2" d="M102,66,98,78H83a6,6,0,0,1,0-12Z"/>
      <polygon class="cls-2" points="106 66 102 78 100 78 104 66 106 66"/>
      <path class="cls-2" d="M117,72a6,6,0,0,1-6,6h-4l4-12A6,6,0,0,1,117,72Z"/>
    </g>
    <g id="Mouth">
      <rect class="cls-2" x="88" y="84" width="2" height="2"/>
      <rect class="cls-2" x="92" y="84" width="2" height="2"/>
      <rect class="cls-2" x="96" y="84" width="2" height="2"/>
      <rect class="cls-2" x="100" y="84" width="2" height="2"/>
      <rect class="cls-2" x="104" y="84" width="2" height="2"/>
    </g>
    <path id="Ear_-_right" data-name="Ear - right" class="cls-1" d="M125,72.12h0a4,4,0,0,1,4,4h0a4,4,0,0,1-4,4h0v-8Z"/>
    <path id="Ear_-_left" data-name="Ear - left" class="cls-1" d="M69,72h0v8h0a4,4,0,0,1-4-4h0A4,4,0,0,1,69,72Z"/>
    <g id="Top_-_1" data-name="Top - 1">
      <g id="Antenna">
        <path id="Rectangle_8" data-name="Rectangle 8" class="cls-1" d="M83,50h0a1,1,0,0,1,1,1v7H82V51A1,1,0,0,1,83,50Z"/>
        <circle id="Ellipse_3" data-name="Ellipse 3" class="cls-1" cx="83" cy="50" r="4"/>
      </g>
      <g id="Antenna-2">
        <path id="Rectangle_8-2" data-name="Rectangle 8-2" class="cls-1" d="M111,50h0a1,1,0,0,1,1,1v7h-2V51A1,1,0,0,1,111,50Z"/>
        <circle id="Ellipse_3-2" data-name="Ellipse 3-2" class="cls-1" cx="111" cy="50" r="4"/>
      </g>
      <path id="Signal" class="cls-3" d="M91,50h2l2-4,4,8,2-4h2"/>
    </g>
  </g>
</svg>
